<?xml version="1.0" encoding="utf-8"?>
<!-- Generator: Adobe Illustrator 27.8.1, SVG Export Plug-In . SVG Version: 6.00 Build 0)  -->
<svg version="1.1" id="Layer_1" xmlns="http://www.w3.org/2000/svg" xmlns:xlink="http://www.w3.org/1999/xlink" x="0px" y="0px"
	 viewBox="0 0 524.2 578.5" style="enable-background:new 0 0 524.2 578.5;" xml:space="preserve">
<style type="text/css">
	.st0{fill:#ffffff;}
	.st1{fill:url(#SVGID_1_);}
</style>
<path class="st0" d="M7.3,427.6v-13.4h58.2v13.4H43.1v53.7H29.7v-53.7H7.3z"/>
<path class="st0" d="M87,414.2h14.3l13.4,34.9l13.4-34.9h3l13.4,34.9l13.4-34.9h14.3l-25.7,67.1h-4l-13-33.6l-12.8,33.6h-4L87,414.2
	z"/>
<path class="st0" d="M199.9,481.3v-67.1h49.2v13.4h-35.8v12.7h26.9v13.4h-26.9v14.2h35.8v13.4L199.9,481.3L199.9,481.3z"/>
<path class="st0" d="M287.6,481.3v-67.1h3.6l41.2,39.2v-39.2h13.4v67.1h-3.7l-41-39.2v39.2H287.6z"/>
<path class="st0" d="M378.9,427.6v-13.4h58.2v13.4h-22.4v53.7h-13.4v-53.7H378.9z"/>
<path class="st0" d="M456.8,414.2h15.8l17.9,28.5l17.9-28.5h15.8l-27,43.1v24h-13.4v-24L456.8,414.2z"/>
<g>
	<path class="st0" d="M33.4,524.8v-13.4h58.2v13.4H69.2v53.7H55.8v-53.7C55.8,524.8,33.4,524.8,33.4,524.8z"/>
	<path class="st0" d="M112.9,511.4h14.3l13.4,34.9l13.4-34.9h3l13.4,34.9l13.4-34.9h14.3l-25.7,67.1h-4l-12.8-33.6l-13,33.6h-4
		L112.9,511.4z"/>
	<path class="st0" d="M217,561.8c-3-5.1-4.5-10.7-4.5-16.9c0-6.1,1.5-11.6,4.5-16.9c3-5.1,7-9.2,12.2-12.2c5.1-3,10.7-4.5,16.9-4.5
		s11.6,1.5,16.9,4.5c5.1,3,9.2,7,12.2,12.2c3,5.1,4.5,10.7,4.5,16.9c0,6.1-1.5,11.6-4.5,16.9c-3,5.1-7,9.2-12.2,12.2
		c-5.1,3-10.7,4.5-16.9,4.5s-11.6-1.5-16.9-4.5C224.2,571.1,220,566.9,217,561.8z M228.7,534.8c-1.8,3.1-2.7,6.4-2.7,10.1
		c0,3.7,0.9,7,2.7,10.1c1.8,3.1,4.3,5.5,7.3,7.3c3.1,1.8,6.4,2.7,10.1,2.7c3.6,0,7-0.9,10.1-2.7c3.1-1.8,5.5-4.3,7.3-7.3
		c1.8-3.1,2.7-6.4,2.7-10.1s-0.9-7-2.7-10.1c-1.8-3.1-4.3-5.5-7.3-7.3c-3.1-1.8-6.4-2.7-10.1-2.7c-3.6,0-7,0.9-10.1,2.7
		C233,529.3,230.5,531.8,228.7,534.8z"/>
	<path class="st0" d="M345,511.4h15.4l23.4,42.8l23.4-42.8h15.4l-36.7,67.1h-4L345,511.4z"/>
	<path class="st0" d="M451.4,578.5v-67.1h13.4v67.1H451.4z"/>
</g>
<g>
	<path class="st0" d="M193.2,57H205l-70.9,0.2l0.1-56.9c0,0,61.8-0.6,66.4,0c55,7.4,52.3,56.9,52.3,56.9s1.1,21-11.2,36.6
		c-13.8,17.6-39.9,21.7-39.9,21.7h52.1v63.7H133.1l0.1-62.9c0,0-1.6-24.9,16.3-41.8C171.7,53.3,193.2,57,193.2,57z"/>
	<path class="st0" d="M339.4,57h11.8l-70.9,0.2l0.1-56.9c0,0,61.8-0.6,66.4,0c55,7.4,52.3,56.9,52.3,56.9s1.1,21-11.2,36.6
		c-13.8,17.6-39.9,21.7-39.9,21.7h52.1v63.7H279.3l0.1-62.9c0,0-1.6-24.9,16.3-41.8C317.8,53.3,339.4,57,339.4,57z"/>
	<rect x="328.7" y="201.8" class="st0" width="71" height="142.7"/>
	<polygon class="st0" points="254.8,346.2 187.1,346.2 132.2,202.9 199.5,203 220.6,259.3 241.4,203 309.4,203 	"/>
	
		<linearGradient id="SVGID_1_" gradientUnits="userSpaceOnUse" x1="218.9429" y1="41.9219" x2="294.5569" y2="172.8895" gradientTransform="matrix(1 0 0 -1 0 367)">
		<stop  offset="0" style="stop-color:#00087F"/>
		<stop  offset="1" style="stop-color:#C6EBFE"/>
	</linearGradient>
	<polygon class="st1" points="220.6,259.1 241.5,202.8 309.5,202.8 254.9,345.9 	"/>
</g>
</svg>
