<?xml version="1.0" encoding="utf-8"?>
<!-- Generator: Adobe Illustrator 27.4.0, SVG Export Plug-In . SVG Version: 6.00 Build 0)  -->
<svg version="1.1" id="Layer_1" xmlns="http://www.w3.org/2000/svg" xmlns:xlink="http://www.w3.org/1999/xlink" x="0px" y="0px"
	 viewBox="0 0 1417.4 368.2" style="enable-background:new 0 0 1417.4 368.2;" xml:space="preserve">
<style type="text/css">
	.st0{fill:#FFF7EB;}
	.st1{fill:url(#SVGID_1_);}
</style>
<g>
	<path class="st0" d="M393.6,161.2v-13.4h58.2v13.4h-22.4v53.7H416v-53.7C416,161.2,393.6,161.2,393.6,161.2z"/>
	<path class="st0" d="M473.3,147.8h14.3l13.4,34.9l13.4-34.9h3l13.4,34.9l13.4-34.9h14.3l-25.7,67.1h-4l-13-33.6l-12.8,33.6h-4
		L473.3,147.8z"/>
	<path class="st0" d="M586.2,214.9v-67.1h49.2v13.4h-35.8v12.7h26.9v13.4h-26.9v14.2h35.8v13.4H586.2z"/>
	<path class="st0" d="M673.9,214.9v-67.1h3.6l41.2,39.2v-39.2h13.4v67.1h-3.7l-41-39.2v39.2H673.9z"/>
	<path class="st0" d="M765.2,161.2v-13.4h58.2v13.4H801v53.7h-13.4v-53.7C787.6,161.2,765.2,161.2,765.2,161.2z"/>
	<path class="st0" d="M843.1,147.8h15.8l17.9,28.5l17.9-28.5h15.8l-27,43.1v24h-13.4v-24L843.1,147.8z"/>
	<path class="st0" d="M979.4,161.2v-13.4h58.2v13.4h-22.4v53.7h-13.4v-53.7C1001.8,161.2,979.4,161.2,979.4,161.2z"/>
	<path class="st0" d="M1058.9,147.8h14.3l13.4,34.9l13.4-34.9h3l13.4,34.9l13.4-34.9h14.3l-25.7,67.1h-4l-12.8-33.6l-13,33.6h-4
		L1058.9,147.8z"/>
	<path class="st0" d="M1163,198.2c-3-5.1-4.5-10.7-4.5-16.9c0-6.1,1.5-11.6,4.5-16.9c3-5.1,7-9.2,12.2-12.2c5.1-3,10.7-4.5,16.9-4.5
		s11.6,1.5,16.9,4.5c5.1,3,9.2,7,12.2,12.2c3,5.1,4.5,10.7,4.5,16.9c0,6.1-1.5,11.6-4.5,16.9c-3,5.1-7,9.2-12.2,12.2
		c-5.1,3-10.7,4.5-16.9,4.5s-11.6-1.5-16.9-4.5C1170.2,207.5,1166,203.3,1163,198.2z M1174.7,171.2c-1.8,3.1-2.7,6.4-2.7,10.1
		c0,3.7,0.9,7,2.7,10.1s4.3,5.5,7.3,7.3c3.1,1.8,6.4,2.7,10.1,2.7c3.6,0,7-0.9,10.1-2.7s5.5-4.3,7.3-7.3c1.8-3.1,2.7-6.4,2.7-10.1
		c0-3.7-0.9-7-2.7-10.1c-1.8-3.1-4.3-5.5-7.3-7.3c-3.1-1.8-6.4-2.7-10.1-2.7c-3.6,0-7,0.9-10.1,2.7
		C1179,165.7,1176.5,168.2,1174.7,171.2z"/>
	<path class="st0" d="M1291,147.8h15.4l23.4,42.8l23.4-42.8h15.4l-36.7,67.1h-4L1291,147.8z"/>
	<path class="st0" d="M1397.4,214.9v-67.1h13.4v67.1H1397.4z"/>
</g>
<g>
	<path class="st0" d="M77.7,66.7h11.8l-70.9,0.2l0.1-56.9c0,0,61.8-0.6,66.4,0c55,7.4,52.3,56.9,52.3,56.9s1.1,21-11.2,36.6
		c-13.8,17.6-39.9,21.7-39.9,21.7h52.1v63.7H17.6l0.1-62.9c0,0-1.6-24.9,16.3-41.8C56.2,63,77.7,66.7,77.7,66.7z"/>
	<path class="st0" d="M223.9,66.7h11.8l-70.9,0.2l0.1-56.9c0,0,61.8-0.6,66.4,0c55,7.4,52.3,56.9,52.3,56.9s1.1,21-11.2,36.6
		c-13.8,17.6-39.9,21.7-39.9,21.7h52.1v63.7H163.8l0.1-62.9c0,0-1.6-24.9,16.3-41.8C202.3,63,223.9,66.7,223.9,66.7z"/>
	<rect x="213.2" y="211.5" class="st0" width="71" height="142.7"/>
	<polygon class="st0" points="139.3,355.9 71.6,355.9 16.7,212.6 84,212.7 105.1,269 125.9,212.7 193.9,212.7 	"/>
	
		<linearGradient id="SVGID_1_" gradientUnits="userSpaceOnUse" x1="103.3999" y1="335.8193" x2="179.0205" y2="204.8402" gradientTransform="matrix(1 0 0 1 0 -1)">
		<stop  offset="0" style="stop-color:#00087F"/>
		<stop  offset="1" style="stop-color:#C6EBFE"/>
	</linearGradient>
	<polygon class="st1" points="105.1,268.8 126,212.5 194,212.5 139.4,355.6 	"/>
</g>
</svg>
