<svg width="1728" height="1117" viewBox="0 0 1728 1117" fill="none" xmlns="http://www.w3.org/2000/svg">
<g opacity="0.07" clip-path="url(#clip0_232_360)">
<path d="M1081.34 1111.24C1099.06 962.178 1145.45 817.811 1209.68 685.642C1295.61 509.372 1428.53 355.22 1597.73 279.887C1639.55 261.523 1683.17 246.778 1728 242.086C1705.95 246.107 1684.38 253.078 1663.04 260.852C1599.66 284.578 1528.35 320.471 1474 363.5C1336.02 472.077 1239.49 627.033 1169.23 795.93C1127.29 897.403 1104.6 1002.39 1081.22 1111.1L1081.34 1111.24Z" fill="url(#paint0_linear_232_360)"/>
<path d="M1138.46 1110.7C1149.91 1018.48 1189.56 858.963 1265.6 809.5C1289.34 794.353 1319.11 791.538 1345.38 799.313C1396.36 814.862 1433.47 862.314 1460.71 910.034C1473.96 933.894 1485.53 958.961 1494.21 985.368C1455.16 911.106 1373.68 780.278 1284.5 809.5C1207.49 836.845 1161.48 1029.87 1138.58 1110.83L1138.46 1110.7Z" fill="url(#paint1_linear_232_360)"/>
<path d="M1459.14 1112.71L1554.1 791.806L1690.16 1114.05" stroke="url(#paint2_linear_232_360)" stroke-width="10" stroke-miterlimit="10"/>
<path d="M434.691 30.4283C419.627 -112.464 506.756 570.229 621.482 569.291C749.705 568.218 808.394 6.8363 808.394 6.8363" stroke="url(#paint3_linear_232_360)" stroke-width="10" stroke-miterlimit="10"/>
<path d="M106.953 1109.76H94.3692L-39.8795 577.065L-40 528.196L106.953 1109.76Z" fill="url(#paint4_linear_232_360)"/>
<path d="M445.175 1110.83H431.991L719.89 5.89801H732.472L445.175 1110.83Z" fill="url(#paint5_linear_232_360)"/>
</g>
<defs>
<linearGradient id="paint0_linear_232_360" x1="1081.22" y1="654.311" x2="1728.13" y2="659.147" gradientUnits="userSpaceOnUse">
<stop stop-color="#203A71"/>
<stop offset="1" stop-color="#3277DF"/>
</linearGradient>
<linearGradient id="paint1_linear_232_360" x1="1138.46" y1="944.856" x2="1494.26" y2="948.882" gradientUnits="userSpaceOnUse">
<stop stop-color="#203A71"/>
<stop offset="1" stop-color="#3277DF"/>
</linearGradient>
<linearGradient id="paint2_linear_232_360" x1="1459.14" y1="944.642" x2="1690.21" y2="946.306" gradientUnits="userSpaceOnUse">
<stop stop-color="#203A71"/>
<stop offset="1" stop-color="#3277DF"/>
</linearGradient>
<linearGradient id="paint3_linear_232_360" x1="432.994" y1="273.601" x2="808.474" y2="276.118" gradientUnits="userSpaceOnUse">
<stop stop-color="#203A71"/>
<stop offset="1" stop-color="#3277DF"/>
</linearGradient>
<linearGradient id="paint4_linear_232_360" x1="-40" y1="804.024" x2="106.99" y2="804.397" gradientUnits="userSpaceOnUse">
<stop stop-color="#203A71"/>
<stop offset="1" stop-color="#3277DF"/>
</linearGradient>
<linearGradient id="paint5_linear_232_360" x1="431.991" y1="529.953" x2="732.548" y2="530.774" gradientUnits="userSpaceOnUse">
<stop stop-color="#203A71"/>
<stop offset="1" stop-color="#3277DF"/>
</linearGradient>
<clipPath id="clip0_232_360">
<rect width="1728" height="1117" fill="white"/>
</clipPath>
</defs>
</svg>
