<?xml version="1.0" encoding="utf-8"?>
<!-- Generator: Adobe Illustrator 27.3.1, SVG Export Plug-In . SVG Version: 6.00 Build 0)  -->
<svg version="1.1" id="Layer_1" xmlns="http://www.w3.org/2000/svg" xmlns:xlink="http://www.w3.org/1999/xlink" x="0px" y="0px"
	 viewBox="0 0 331.9 422.6" style="enable-background:new 0 0 331.9 422.6;" xml:space="preserve">
<style type="text/css">
	.st0{fill:#FFF7EB;}
	.st1{fill:url(#SVGID_1_);}
</style>
<path class="st0" d="M81.8,77.2l13.6,0l-81.8,0.2l0.1-65.7c0,0,71.3-0.7,76.6,0c63.5,8.5,60.4,65.7,60.4,65.7s1.3,24.2-12.9,42.3
	c-15.9,20.3-46.1,25-46.1,25l60.1,0v73.5H12.4l0.1-72.6c0,0-1.9-28.7,18.8-48.3C56.9,73,81.8,77.2,81.8,77.2z"/>
<path class="st0" d="M250.5,77.2l13.6,0l-81.8,0.2l0.1-65.7c0,0,71.3-0.7,76.6,0c63.5,8.5,60.4,65.7,60.4,65.7s1.3,24.2-12.9,42.3
	c-15.9,20.3-46.1,25-46.1,25l60.1,0v73.5H181.1l0.1-72.6c0,0-1.9-28.7,18.8-48.3C225.6,73,250.5,77.2,250.5,77.2z"/>
<rect x="238.1" y="244.4" class="st0" width="81.9" height="164.7"/>
<polygon class="st0" points="152.9,411 74.7,411 11.3,245.6 89,245.7 113.4,310.7 137.4,245.7 215.9,245.7 "/>
<linearGradient id="SVGID_1_" gradientUnits="userSpaceOnUse" x1="111.3823" y1="386.7092" x2="198.674" y2="235.5154">
	<stop  offset="0" style="stop-color:#00087F"/>
	<stop  offset="1" style="stop-color:#C6EBFE"/>
</linearGradient>
<polygon class="st1" points="113.4,310.5 137.5,245.5 216,245.5 153,410.7 "/>
</svg>
