<svg width="60" height="60" viewBox="0 0 60 60" fill="none" xmlns="http://www.w3.org/2000/svg">
<path d="M33.0867 47.5383C32.9995 47.4512 32.9304 47.3479 32.8832 47.234C32.836 47.1202 32.8118 46.9982 32.8118 46.875C32.8118 46.7518 32.836 46.6298 32.8832 46.516C32.9304 46.4022 32.9995 46.2988 33.0867 46.2118L48.3609 30.9375L9.37499 30.9375C9.12635 30.9375 8.88789 30.8388 8.71208 30.6629C8.53626 30.4871 8.43749 30.2487 8.43749 30C8.43749 29.7514 8.53626 29.5129 8.71208 29.3371C8.88789 29.1613 9.12635 29.0625 9.37499 29.0625L48.3609 29.0625L33.0867 13.7883C32.9996 13.7012 32.9305 13.5978 32.8834 13.484C32.8362 13.3702 32.812 13.2482 32.812 13.125C32.812 13.0019 32.8362 12.8799 32.8834 12.7661C32.9305 12.6523 32.9996 12.5489 33.0867 12.4618C33.1738 12.3746 33.2772 12.3056 33.391 12.2584C33.5048 12.2113 33.6268 12.187 33.75 12.187C33.8732 12.187 33.9952 12.2113 34.109 12.2584C34.2228 12.3056 34.3262 12.3746 34.4133 12.4618L51.2883 29.3368C51.3754 29.4238 51.4446 29.5272 51.4918 29.641C51.5389 29.7548 51.5632 29.8768 51.5632 30C51.5632 30.1232 51.5389 30.2452 51.4918 30.359C51.4446 30.4729 51.3754 30.5762 51.2883 30.6633L34.4133 47.5383C34.3262 47.6255 34.2228 47.6946 34.109 47.7418C33.9952 47.789 33.8732 47.8133 33.75 47.8133C33.6268 47.8133 33.5048 47.789 33.391 47.7418C33.2772 47.6946 33.1738 47.6255 33.0867 47.5383Z" fill="url(#paint0_linear_232_393)"/>
<defs>
<linearGradient id="paint0_linear_232_393" x1="49.8732" y1="12.187" x2="34.3285" y2="56.0723" gradientUnits="userSpaceOnUse">
<stop stop-color="#FFB901"/>
<stop offset="0.468032" stop-color="#FF7F00"/>
<stop offset="0.81734" stop-color="#FE6312"/>
<stop offset="1" stop-color="#FD6220"/>
</linearGradient>
</defs>
</svg>
