<svg width="88" height="88" viewBox="0 0 88 88" fill="none" xmlns="http://www.w3.org/2000/svg">
<g clip-path="url(#clip0_703_296)">
<circle cx="44" cy="44" r="44" fill="url(#paint0_linear_703_296)"/>
<path d="M22.897 47.163L34.8549 59.1035C34.9807 59.2292 35.13 59.3289 35.2944 59.397C35.4587 59.465 35.6348 59.5 35.8127 59.5C35.9905 59.5 36.1667 59.465 36.331 59.397C36.4953 59.329 36.6445 59.2293 36.7703 59.1037C36.7703 59.1036 36.7704 59.1035 36.7705 59.1035L64.103 31.8106C64.3571 31.5569 64.5 31.2126 64.5 30.8534C64.5 30.4942 64.3571 30.1499 64.103 29.8961C63.8489 29.6424 63.5044 29.5 63.1454 29.5C62.7863 29.5 62.4419 29.6424 62.1878 29.8961L35.8127 56.233L24.8122 45.2485C24.5581 44.9947 24.2137 44.8523 23.8546 44.8523C23.4956 44.8523 23.1511 44.9947 22.897 45.2485C22.6429 45.5022 22.5 45.8465 22.5 46.2057C22.5 46.5649 22.6429 46.9092 22.897 47.163Z" fill="#FFF7EB" stroke="#FFF7EB"/>
</g>
<defs>
<linearGradient id="paint0_linear_703_296" x1="8.732e-07" y1="41.7371" x2="88.0138" y2="42.6212" gradientUnits="userSpaceOnUse">
<stop stop-color="#203A71"/>
<stop offset="1" stop-color="#3277DF"/>
</linearGradient>
<clipPath id="clip0_703_296">
<rect width="88" height="88" fill="white"/>
</clipPath>
</defs>
</svg>
