<svg width="30" height="30" viewBox="0 0 30 30" fill="none" xmlns="http://www.w3.org/2000/svg">
<path d="M15.7251 15L29.4931 1.21604C29.5887 1.11943 29.6424 0.988978 29.6424 0.853038C29.6424 0.717099 29.5887 0.586651 29.4931 0.490038C29.3951 0.396589 29.2648 0.344541 29.1294 0.344727C28.994 0.344913 28.8639 0.39732 28.7661 0.491038L15.0001 14.274L1.23211 0.490038C1.13405 0.397201 1.00415 0.345463 0.869113 0.345463C0.734077 0.345463 0.604173 0.397201 0.506113 0.490038C0.410543 0.586481 0.356925 0.716763 0.356925 0.852538C0.356925 0.988313 0.410543 1.1186 0.506113 1.21504L14.2751 15L0.507113 28.784C0.456591 28.831 0.41605 28.8876 0.387912 28.9506C0.359774 29.0135 0.344618 29.0815 0.343349 29.1504C0.342079 29.2194 0.354723 29.2879 0.380525 29.3518C0.406326 29.4158 0.444755 29.4739 0.493516 29.5226C0.542276 29.5714 0.600367 29.6098 0.664315 29.6356C0.728264 29.6614 0.796758 29.6741 0.865704 29.6728C0.93465 29.6715 1.00263 29.6564 1.06559 29.6282C1.12854 29.6001 1.18518 29.5596 1.23211 29.509L15.0001 15.726L28.7671 29.51C28.8147 29.5577 28.8712 29.5955 28.9335 29.6214C28.9957 29.6472 29.0624 29.6605 29.1298 29.6605C29.1971 29.6606 29.2638 29.6474 29.3261 29.6216C29.3884 29.5959 29.4449 29.5581 29.4926 29.5105C29.5403 29.4629 29.5781 29.4064 29.6039 29.3442C29.6298 29.282 29.6431 29.2153 29.6431 29.1479C29.6432 29.0805 29.6299 29.0138 29.6042 28.9515C29.5785 28.8893 29.5407 28.8327 29.4931 28.785L15.7251 15Z" fill="#01043C"/>
</svg>
