<svg width="25" height="25" viewBox="0 0 25 25" fill="none" xmlns="http://www.w3.org/2000/svg">
<path d="M12.5 0C15.1111 0 17.7778 0 20.4444 0C21.4444 0 22.3333 0.33557 23.1667 0.894855C24.1667 1.62192 24.6667 2.62864 24.9444 3.7472C24.9444 3.97092 25 4.19463 25 4.41834C25 9.78747 25 15.2125 25 20.5817C25 21.5884 24.6111 22.4273 24.0556 23.2103C23.3333 24.1611 22.3889 24.7204 21.2778 24.9441C21.0556 24.9441 20.8889 25 20.6667 25C15.3333 25 9.94445 25 4.61111 25C3.61111 25 2.72222 24.6644 1.88889 24.0492C0.944445 23.3221 0.388889 22.3714 0.111111 21.1969C0.111111 20.9732 0.0555556 20.7494 0.0555556 20.5257C0 15.3244 0 10.0112 0 4.64206C0 3.7472 0.277778 2.90828 0.722222 2.12528C1.44444 1.00671 2.5 0.391499 3.77778 0.0559284C4 0.0559284 4.16667 0 4.38889 0C7.05556 0 9.77778 0 12.5 0ZM13.4444 21.2528V20.9172C13.4444 18.736 13.4444 16.6107 13.4444 14.4295C13.4444 14.094 13.5556 13.7025 13.7222 13.4228C14.0556 12.8635 14.5556 12.472 15.2222 12.3602C15.7778 12.3043 16.5556 12.528 16.8889 13.0872C17.1111 13.5906 17.2222 14.038 17.2222 14.5973C17.2222 16.7226 17.2222 18.8479 17.2222 20.9732C17.2222 21.085 17.2222 21.1969 17.2222 21.2528H21.1111V20.9172C21.1111 19.7427 21.1111 18.5682 21.1111 17.3937C21.1111 16.1074 21.1111 14.821 21 13.4787C21 12.6957 20.7222 11.9687 20.3333 11.2975C19.9444 10.6823 19.4444 10.123 18.7222 9.8434C17.7778 9.4519 16.8333 9.28412 15.8333 9.50783C15.0556 9.67561 14.3333 10.0671 13.8333 10.7383C13.6667 10.906 13.5556 11.1298 13.3889 11.3535V9.67561H9.5V21.2528H13.3889H13.4444ZM3.88889 9.67561V21.2528H7.66667V9.67561H3.88889ZM3.55556 6.15213C3.66667 6.43177 3.66667 6.76734 3.83333 7.04698C4.38889 8.10962 5.72222 8.33333 6.66667 7.88591C7.38889 7.55034 7.88889 6.87919 7.77778 5.92841C7.72222 5.36913 7.44444 4.9217 6.94444 4.58613C6.5 4.25056 6 4.25056 5.5 4.25056C4.44444 4.25056 3.61111 5.14541 3.55556 6.20805V6.15213Z" fill="white"/>
<path d="M13.4446 21.2529H9.55566V9.6757H13.4446V11.3536C13.6112 11.1298 13.7779 10.9061 13.889 10.7383C14.389 10.0672 15.0557 9.73163 15.889 9.50792C16.889 9.2842 17.8334 9.45199 18.7779 9.84349C19.4446 10.1791 20.0001 10.6824 20.389 11.2976C20.7779 11.9688 21.0557 12.6958 21.0557 13.4788C21.0557 14.7652 21.1112 16.0515 21.1668 17.3938C21.1668 18.5683 21.1668 19.7428 21.1668 20.9173V21.2529H17.2779C17.2779 21.141 17.2779 21.0851 17.2779 20.9732C17.2779 18.848 17.2779 16.7227 17.2779 14.5974C17.2779 14.094 17.1668 13.5907 16.9446 13.0873C16.6668 12.5281 15.8334 12.2484 15.2779 12.3603C14.6112 12.4721 14.1112 12.8077 13.7779 13.4229C13.6112 13.7025 13.5001 14.094 13.5001 14.4296C13.5001 16.6108 13.5001 18.7361 13.5001 20.9173V21.2529H13.4446Z" fill="#01043C"/>
<path d="M3.88867 9.67554H7.66645V21.2527H3.88867V9.67554Z" fill="#01043C"/>
<path d="M3.55566 6.15207C3.55566 5.08943 4.389 4.25051 5.50011 4.19458C6.00011 4.19458 6.50011 4.19458 6.94455 4.53015C7.389 4.86572 7.66677 5.31315 7.77789 5.87243C7.889 6.82322 7.389 7.55028 6.66677 7.82993C5.72233 8.27735 4.389 8.05364 3.83344 6.991C3.66678 6.71136 3.66678 6.37579 3.55566 6.09615V6.15207Z" fill="#01043C"/>
</svg>
