<svg width="32" height="32" viewBox="0 0 32 32" fill="none" xmlns="http://www.w3.org/2000/svg">
<path d="M31.3845 31.3849L22.8131 22.8134M14.2417 27.0991C12.5532 27.0991 10.8813 26.7666 9.32145 26.1204C7.76155 25.4743 6.34419 24.5273 5.15029 23.3334C3.9564 22.1395 3.00935 20.7221 2.36321 19.1622C1.71708 17.6023 1.38452 15.9304 1.38452 14.242C1.38452 12.5536 1.71708 10.8817 2.36321 9.32178C3.00935 7.76188 3.9564 6.34452 5.15029 5.15063C6.34419 3.95673 7.76155 3.00968 9.32145 2.36355C10.8813 1.71742 12.5532 1.38486 14.2417 1.38486C17.6516 1.38486 20.9219 2.73944 23.333 5.15063C25.7442 7.56181 27.0988 10.8321 27.0988 14.242C27.0988 17.6519 25.7442 20.9222 23.333 23.3334C20.9219 25.7446 17.6516 27.0991 14.2417 27.0991Z" stroke="#FFF7EB"/>
</svg>
