<svg width="31" height="31" viewBox="0 0 31 31" fill="none" xmlns="http://www.w3.org/2000/svg">
<g clip-path="url(#clip0_837_662)">
<path d="M24.35 13.85C19.55 11 11.525 10.7 6.95 12.125C6.2 12.35 5.45 11.9 5.225 11.225C5 10.475 5.45 9.725 6.125 9.5C11.45 7.925 20.225 8.225 25.775 11.525C26.45 11.9 26.675 12.8 26.3 13.475C25.925 14 25.025 14.225 24.35 13.85ZM24.2 18.05C23.825 18.575 23.15 18.8 22.625 18.425C18.575 15.95 12.425 15.2 7.7 16.7C7.1 16.85 6.425 16.55 6.275 15.95C6.125 15.35 6.425 14.675 7.025 14.525C12.5 12.875 19.25 13.7 23.9 16.55C24.35 16.775 24.575 17.525 24.2 18.05ZM22.4 22.175C22.1 22.625 21.575 22.775 21.125 22.475C17.6 20.3 13.175 19.85 7.925 21.05C7.4 21.2 6.95 20.825 6.8 20.375C6.65 19.85 7.025 19.4 7.475 19.25C13.175 17.975 18.125 18.5 22.025 20.9C22.55 21.125 22.625 21.725 22.4 22.175ZM15.5 0.5C13.5302 0.5 11.5796 0.887987 9.75975 1.64181C7.93986 2.39563 6.28628 3.50052 4.8934 4.8934C2.08035 7.70644 0.5 11.5218 0.5 15.5C0.5 19.4782 2.08035 23.2936 4.8934 26.1066C6.28628 27.4995 7.93986 28.6044 9.75975 29.3582C11.5796 30.112 13.5302 30.5 15.5 30.5C19.4782 30.5 23.2936 28.9196 26.1066 26.1066C28.9196 23.2936 30.5 19.4782 30.5 15.5C30.5 13.5302 30.112 11.5796 29.3582 9.75975C28.6044 7.93986 27.4995 6.28628 26.1066 4.8934C24.7137 3.50052 23.0601 2.39563 21.2403 1.64181C19.4204 0.887987 17.4698 0.5 15.5 0.5Z" fill="#ffffff"/>
</g>
<defs>
<clipPath id="clip0_837_662">
<rect width="31" height="31" fill="white"/>
</clipPath>
</defs>
</svg>
